<svg width="40" height="40" viewBox="0 0 40 40" fill="none" xmlns="http://www.w3.org/2000/svg">
<path d="M20 40L19.4405 39.9923C8.65884 39.6957 0 30.8529 0 20C0 8.98 8.96 0 20 0C31.02 0 40 8.98 40 20C40 31.04 31.02 40 20 40ZM16.04 28C16.64 28.6 17.58 28.6 18.16 28L25.14 21.06C25.42 20.78 25.58 20.4 25.58 20C25.58 19.6 25.42 19.22 25.14 18.94L18.16 12C17.88 11.7 17.5 11.56 17.12 11.56C16.72 11.56 16.34 11.7 16.04 12C15.46 12.6 15.46 13.54 16.06 14.12L21.96 20L16.06 25.88C15.46 26.46 15.46 27.42 16.04 28Z" fill="#F1D8C0" fill-opacity="0.42"/>
</svg>
