<svg width="40" height="40" viewBox="0 0 40 40" fill="none" xmlns="http://www.w3.org/2000/svg">
<path d="M20 0L19.4405 0.00768842C8.65884 0.304326 0 9.14712 0 20C0 31.02 8.96 40 20 40C31.02 40 40 31.02 40 20C40 8.96 31.02 0 20 0ZM16.04 12C16.64 11.4 17.58 11.4 18.16 12L25.14 18.94C25.42 19.22 25.58 19.6 25.58 20C25.58 20.4 25.42 20.78 25.14 21.06L18.16 28C17.88 28.3 17.5 28.44 17.12 28.44C16.72 28.44 16.34 28.3 16.04 28C15.46 27.4 15.46 26.46 16.06 25.88L21.96 20L16.06 14.12C15.46 13.54 15.46 12.58 16.04 12Z" fill="#F1D8C0"/>
</svg>
