<svg width="44" height="12" viewBox="0 0 44 12" fill="none" xmlns="http://www.w3.org/2000/svg">
<path d="M1.37816 5.13042C0.980854 5.13042 0.658774 5.4525 0.658774 5.8498C0.658774 6.2471 0.980854 6.56918 1.37816 6.56918L1.37816 5.13042ZM42.8917 6.35849C43.1727 6.07755 43.1727 5.62206 42.8917 5.34112L38.3136 0.762989C38.0327 0.482052 37.5772 0.482052 37.2962 0.762989C37.0153 1.04393 37.0153 1.49942 37.2962 1.78035L41.3657 5.8498L37.2962 9.91925C37.0153 10.2002 37.0153 10.6557 37.2962 10.9366C37.5772 11.2176 38.0327 11.2176 38.3136 10.9366L42.8917 6.35849ZM1.37816 6.56918L42.3831 6.56919L42.3831 5.13042L1.37816 5.13042L1.37816 6.56918Z" fill="#F1D8C0"/>
</svg>
