<svg width="24" height="25" viewBox="0 0 24 25" fill="none" xmlns="http://www.w3.org/2000/svg">
<path fill-rule="evenodd" clip-rule="evenodd" d="M22.6755 24.5047C23.407 24.5047 24 23.9116 24 23.1801V1.82909C24 1.09738 23.4069 0.504517 22.6755 0.504517H1.32458C0.592867 0.504517 0 1.09747 0 1.82909V23.18C0 23.9116 0.592867 24.5046 1.32458 24.5046H22.6755V24.5047ZM16.5596 24.5047V15.2105H19.6793L20.1463 11.5884H16.5595V9.27585C16.5595 8.22716 16.8507 7.51254 18.3546 7.51254L20.2726 7.51164V4.27205C19.9408 4.22799 18.8022 4.12934 17.4777 4.12934C14.7123 4.12934 12.8191 5.8173 12.8191 8.91724V11.5884H9.69143V15.2105H12.8191V24.5046H16.5596V24.5047Z" fill="#F1D8C0"/>
</svg>
