<svg width="24" height="25" viewBox="0 0 24 25" fill="none" xmlns="http://www.w3.org/2000/svg">
<path d="M8.00096 12.5045C8.00096 10.2955 9.79134 8.5042 12.0005 8.5042C14.2096 8.5042 16.001 10.2955 16.001 12.5045C16.001 14.7136 14.2096 16.5048 12.0005 16.5048C9.79134 16.5048 8.00096 14.7136 8.00096 12.5045ZM5.83838 12.5045C5.83838 15.9077 8.59714 18.6664 12.0005 18.6664C15.4038 18.6664 18.1626 15.9077 18.1626 12.5045C18.1626 9.10132 15.4038 6.34266 12.0005 6.34266C8.59714 6.34266 5.83838 9.10132 5.83838 12.5045ZM16.9665 6.09834C16.9662 6.89363 17.6106 7.5386 18.406 7.53892C19.2013 7.53923 19.8463 6.89478 19.8466 6.09949C19.8469 5.3042 19.2024 4.65923 18.4071 4.65892H18.4065C17.6116 4.65929 16.9672 5.30343 16.9665 6.09834ZM7.15229 22.2722C5.98229 22.2189 5.34636 22.0241 4.92375 21.8594C4.36347 21.6413 3.96371 21.3815 3.54341 20.9618C3.1231 20.5421 2.86293 20.1428 2.64577 19.5825C2.48103 19.1601 2.28614 18.524 2.23295 17.3541C2.17477 16.0892 2.16316 15.7092 2.16316 12.5046C2.16316 9.30004 2.17573 8.92112 2.23295 7.65517C2.28624 6.48522 2.48256 5.85037 2.64577 5.42672C2.86389 4.86647 3.12368 4.46672 3.54341 4.04644C3.96313 3.62615 4.36251 3.36599 4.92375 3.14884C5.34617 2.9841 5.98229 2.78922 7.15229 2.73604C8.41723 2.67786 8.79722 2.66624 12.0005 2.66624C15.2037 2.66624 15.5841 2.67882 16.8501 2.73604C18.0201 2.78932 18.655 2.98564 19.0787 3.14884C19.6389 3.36599 20.0387 3.62672 20.459 4.04644C20.8793 4.46615 21.1385 4.86647 21.3566 5.42672C21.5214 5.84912 21.7163 6.48522 21.7694 7.65517C21.8276 8.92112 21.8392 9.30004 21.8392 12.5046C21.8392 15.7092 21.8276 16.0881 21.7694 17.3541C21.7162 18.524 21.5203 19.1599 21.3566 19.5825C21.1385 20.1428 20.8787 20.5425 20.459 20.9618C20.0393 21.3812 19.6389 21.6413 19.0787 21.8594C18.6562 22.0242 18.0201 22.219 16.8501 22.2722C15.5852 22.3304 15.2052 22.342 12.0005 22.342C8.79578 22.342 8.41685 22.3304 7.15229 22.2722ZM7.05292 0.577189C5.7754 0.635365 4.90244 0.837925 4.14007 1.13456C3.35053 1.4409 2.68216 1.85188 2.01426 2.51869C1.34636 3.18551 0.936421 3.85492 0.630073 4.64442C0.333421 5.40724 0.130853 6.27968 0.0726749 7.55716C0.0135365 8.83664 0 9.2457 0 12.5045C0 15.7633 0.0135365 16.1724 0.0726749 17.4519C0.130853 18.7294 0.333421 19.6018 0.630073 20.3646C0.936421 21.1536 1.34645 21.8238 2.01426 22.4903C2.68206 23.1569 3.35053 23.5673 4.14007 23.8745C4.90388 24.1711 5.7754 24.3737 7.05292 24.4318C8.33313 24.49 8.74153 24.5045 12.0005 24.5045C15.2594 24.5045 15.6685 24.491 16.948 24.4318C18.2257 24.3737 19.098 24.1711 19.8609 23.8745C20.6499 23.5673 21.3188 23.1572 21.9867 22.4903C22.6546 21.8235 23.0637 21.1536 23.3709 20.3646C23.6675 19.6018 23.8711 18.7293 23.9283 17.4519C23.9865 16.1714 24 15.7633 24 12.5045C24 9.2457 23.9865 8.83664 23.9283 7.55716C23.8701 6.27959 23.6675 5.40676 23.3709 4.64442C23.0637 3.8554 22.6535 3.18656 21.9867 2.51869C21.3199 1.85082 20.6499 1.4409 19.8619 1.13456C19.098 0.837925 18.2256 0.634405 16.949 0.577189C15.6695 0.519013 15.2604 0.504517 12.0014 0.504517C8.74249 0.504517 8.33313 0.518053 7.05292 0.577189Z" fill="#F1D8C0"/>
</svg>
