<svg width="125" height="54" viewBox="0 0 125 54" fill="none" xmlns="http://www.w3.org/2000/svg">
<path d="M7.352 2.888C7.192 3.016 7.032 3.16 6.872 3.32C6.712 3.448 6.584 3.592 6.488 3.752C5.816 4.552 5.48 6.28 5.48 8.936V34.808C5.48 36.248 5.528 37.288 5.624 37.928C5.752 38.536 5.848 38.968 5.912 39.224C6.2 39.896 6.696 40.44 7.4 40.856H0.104C0.456 40.664 0.744 40.392 0.968 40.04C1.608 39.208 1.928 37.464 1.928 34.808V8.936C1.928 7.496 1.88 6.472 1.784 5.864C1.688 5.256 1.592 4.824 1.496 4.568C1.208 3.896 0.728 3.336 0.0560001 2.888H7.352ZM14.1796 14.648H14.2276V23.672C14.3876 23.128 14.5796 22.584 14.8036 22.04C15.0276 21.464 15.2996 20.904 15.6196 20.36C16.0676 19.592 16.6116 18.856 17.2516 18.152C17.9236 17.448 18.6596 16.84 19.4596 16.328C20.2596 15.784 21.0756 15.368 21.9076 15.08C22.7716 14.76 23.6196 14.6 24.4516 14.6C25.5716 14.6 26.5956 14.92 27.5236 15.56C28.4516 16.2 29.1876 17.256 29.7316 18.728C29.9236 19.24 30.0676 19.928 30.1636 20.792C30.2596 21.656 30.3076 22.648 30.3076 23.768V35.384C30.3076 37.272 30.4836 38.568 30.8356 39.272C30.9636 39.688 31.2356 40.072 31.6516 40.424H26.2276C26.7716 39.944 27.1396 39.272 27.3316 38.408C27.3956 38.248 27.4436 37.976 27.4756 37.592C27.5076 37.208 27.5236 36.472 27.5236 35.384V24.248C27.5236 23.448 27.4596 22.568 27.3316 21.608C27.2356 20.648 27.0116 19.768 26.6596 18.968C26.3396 18.136 25.8596 17.448 25.2196 16.904C24.5796 16.36 23.7316 16.088 22.6756 16.088C21.3956 16.088 20.1316 16.52 18.8836 17.384C17.6356 18.248 16.6436 19.304 15.9076 20.552C15.4596 21.288 15.1076 22.072 14.8516 22.904C14.5956 23.704 14.3876 24.472 14.2276 25.208V35.384C14.2276 36.696 14.2756 37.608 14.3716 38.12C14.4676 38.632 14.5636 39 14.6596 39.224C14.9156 39.736 15.2036 40.136 15.5236 40.424H10.0996C10.7396 39.784 11.1076 39 11.2036 38.072C11.3316 37.144 11.3956 36.248 11.3956 35.384V25.304C11.3956 24.184 11.3796 23.256 11.3476 22.52C11.3476 21.784 11.3316 21.192 11.2996 20.744C11.2996 20.296 11.2836 19.96 11.2516 19.736C11.2516 19.48 11.2356 19.288 11.2036 19.16C10.9796 18.2 10.6276 17.512 10.1476 17.096C9.92363 16.872 9.63563 16.712 9.28363 16.616L14.1796 14.648ZM29.7762 15.608C29.7762 15.48 29.8242 15.416 29.9202 15.416H35.2003V12.728C35.2003 10.168 35.6003 8.024 36.4003 6.296C37.2323 4.568 38.4163 3.192 39.9523 2.168C41.4883 1.144 43.2163 0.631999 45.1363 0.631999C46.0963 0.631999 47.0243 0.775999 47.9203 1.064C48.8483 1.352 49.7123 1.816 50.5123 2.456C50.7683 2.648 50.9923 2.872 51.1843 3.128C51.4083 3.352 51.5683 3.608 51.6643 3.896C51.7923 4.152 51.8403 4.424 51.8083 4.712C51.7763 5 51.6323 5.288 51.3763 5.576C51.0883 5.864 50.7683 6.008 50.4163 6.008C49.9363 6.008 49.4883 5.768 49.0723 5.288C48.6563 4.776 48.3203 4.296 48.0643 3.848C47.4243 2.92 46.8163 2.232 46.2403 1.784C45.6643 1.336 44.9763 1.112 44.1763 1.112C43.5363 1.112 42.7203 1.288 41.7283 1.64C40.7043 2.024 39.9363 2.584 39.4243 3.32C38.9123 4.056 38.5443 4.92 38.3203 5.912C38.0963 6.904 37.9843 7.976 37.9843 9.128C37.9843 10.28 37.9843 11.432 37.9843 12.584V15.416H41.2003C42.6723 15.416 44.0963 15.272 45.4723 14.984C46.8803 14.696 48.2083 14.296 49.4563 13.784C49.6163 13.72 49.7603 13.656 49.8883 13.592C50.0163 13.528 50.1443 13.464 50.2723 13.4C50.7203 13.208 50.9923 12.936 51.0883 12.584C51.1843 12.232 51.2163 11.848 51.1843 11.432C51.1843 11.016 51.1683 10.584 51.1363 10.136C51.1363 9.688 51.2483 9.256 51.4723 8.84C51.6323 8.52 51.8723 8.264 52.1923 8.072C52.5123 7.88 52.8643 7.784 53.2483 7.784C53.7923 7.784 54.2403 7.976 54.5923 8.36C54.9763 8.744 55.1683 9.208 55.1683 9.752C55.1683 10.008 55.1043 10.28 54.9763 10.568C54.8803 10.824 54.7363 11.032 54.5443 11.192C53.7763 11.896 52.8483 12.536 51.7603 13.112C50.7043 13.688 49.5843 14.184 48.4003 14.6C47.2483 14.984 46.0803 15.288 44.8963 15.512C43.7123 15.704 42.6083 15.8 41.5843 15.8C40.9763 15.832 40.3683 15.848 39.7603 15.848C39.1843 15.816 38.5923 15.8 37.9843 15.8V34.472C37.9843 35.912 38.0643 37.08 38.2243 37.976C38.4163 38.84 38.7043 39.496 39.0883 39.944C39.1523 40.072 39.2323 40.184 39.3283 40.28C39.4563 40.376 39.6003 40.488 39.7603 40.616H33.4243C33.7123 40.36 33.9683 40.072 34.1923 39.752C34.4483 39.432 34.6403 39.096 34.7683 38.744C34.9283 38.328 35.0403 37.784 35.1043 37.112C35.1683 36.408 35.2003 35.528 35.2003 34.472V15.8H29.9202C29.8242 15.8 29.7762 15.736 29.7762 15.608ZM50.0803 16.664L54.9763 14.696H55.0243V35.432C55.0243 36.648 55.0723 37.528 55.1683 38.072C55.2963 38.616 55.3923 39 55.4563 39.224C55.5843 39.48 55.7123 39.72 55.8403 39.944C56.0003 40.136 56.1763 40.312 56.3683 40.472H50.8963C51.2163 40.184 51.4563 39.832 51.6163 39.416C51.8083 39 51.9363 38.568 52.0003 38.12C52.0963 37.64 52.1443 37.176 52.1443 36.728C52.1763 36.248 52.1923 35.816 52.1923 35.432V24.968C52.1923 23.432 52.1763 22.184 52.1443 21.224C52.1123 20.232 52.0323 19.512 51.9043 19.064C51.7123 18.168 51.3763 17.528 50.8963 17.144C50.6723 16.92 50.4003 16.76 50.0803 16.664ZM63.1171 14.648H63.1651V23.672C63.3251 23.128 63.5171 22.584 63.7411 22.04C63.9651 21.464 64.2371 20.904 64.5571 20.36C65.0051 19.592 65.5491 18.856 66.1891 18.152C66.8611 17.448 67.5971 16.84 68.3971 16.328C69.1971 15.784 70.0131 15.368 70.8451 15.08C71.7091 14.76 72.5571 14.6 73.3891 14.6C74.5091 14.6 75.5331 14.92 76.4611 15.56C77.3891 16.2 78.1251 17.256 78.6691 18.728C78.8611 19.24 79.0051 19.928 79.1011 20.792C79.1971 21.656 79.2451 22.648 79.2451 23.768V35.384C79.2451 37.272 79.4211 38.568 79.7731 39.272C79.9011 39.688 80.1731 40.072 80.5891 40.424H75.1651C75.7091 39.944 76.0771 39.272 76.2691 38.408C76.3331 38.248 76.3811 37.976 76.4131 37.592C76.4451 37.208 76.4611 36.472 76.4611 35.384V24.248C76.4611 23.448 76.3971 22.568 76.2691 21.608C76.1731 20.648 75.9491 19.768 75.5971 18.968C75.2771 18.136 74.7971 17.448 74.1571 16.904C73.5171 16.36 72.6691 16.088 71.6131 16.088C70.3331 16.088 69.0691 16.52 67.8211 17.384C66.5731 18.248 65.5811 19.304 64.8451 20.552C64.3971 21.288 64.0451 22.072 63.7891 22.904C63.5331 23.704 63.3251 24.472 63.1651 25.208V35.384C63.1651 36.696 63.2131 37.608 63.3091 38.12C63.4051 38.632 63.5011 39 63.5971 39.224C63.8531 39.736 64.1411 40.136 64.4611 40.424H59.0371C59.6771 39.784 60.0451 39 60.1411 38.072C60.2691 37.144 60.3331 36.248 60.3331 35.384V25.304C60.3331 24.184 60.3171 23.256 60.2851 22.52C60.2851 21.784 60.2691 21.192 60.2371 20.744C60.2371 20.296 60.2211 19.96 60.1891 19.736C60.1891 19.48 60.1731 19.288 60.1411 19.16C59.9171 18.2 59.5651 17.512 59.0851 17.096C58.8611 16.872 58.5731 16.712 58.2211 16.616L63.1171 14.648ZM89.7538 2.936C90.6178 2.936 91.4178 3.096 92.1538 3.416C92.8898 3.736 93.5298 4.184 94.0738 4.76C94.6498 5.304 95.0978 5.944 95.4178 6.68C95.7378 7.416 95.8978 8.216 95.8978 9.08V14.84H98.3938C98.5538 14.84 98.6338 14.904 98.6338 15.032C98.6338 15.16 98.5538 15.224 98.3938 15.224H95.8978V33.896C95.8978 34.536 95.9458 35.192 96.0418 35.864C96.1378 36.504 96.3138 37.096 96.5698 37.64C96.8578 38.152 97.2418 38.584 97.7218 38.936C98.2338 39.256 98.8898 39.416 99.6898 39.416C100.138 39.416 100.538 39.352 100.89 39.224C100.826 39.288 100.762 39.336 100.698 39.368C100.666 39.4 100.618 39.432 100.554 39.464C99.4978 40.296 98.4098 40.712 97.2898 40.712C96.3618 40.712 95.6258 40.536 95.0818 40.184C94.5378 39.8 94.1218 39.32 93.8338 38.744C93.5458 38.168 93.3538 37.512 93.2578 36.776C93.1938 36.04 93.1618 35.288 93.1618 34.52V15.272H90.0898C90.1218 15.272 90.1218 15.192 90.0898 15.032C90.0898 14.872 90.1058 14.792 90.1378 14.792C90.8738 14.792 91.5618 14.632 92.2018 14.312C92.8418 13.992 93.4018 13.576 93.8818 13.064C94.3938 12.52 94.7938 11.912 95.0818 11.24C95.3698 10.536 95.5138 9.816 95.5138 9.08C95.5138 8.28 95.3538 7.528 95.0338 6.824C94.7458 6.12 94.3298 5.512 93.7858 5C93.2738 4.456 92.6658 4.04 91.9618 3.752C91.2898 3.432 90.5538 3.272 89.7538 3.272C88.9538 3.272 88.2178 3.416 87.5458 3.704C86.9058 3.992 86.3458 4.392 85.8658 4.904C85.4818 5.288 85.3698 5.688 85.5298 6.104C85.7218 6.52 85.9778 6.968 86.2978 7.448C86.6498 7.896 86.9538 8.376 87.2098 8.888C87.4658 9.368 87.4978 9.848 87.3058 10.328C87.1778 10.68 86.9538 10.968 86.6338 11.192C86.3458 11.416 85.9778 11.528 85.5298 11.528C84.9858 11.528 84.5378 11.336 84.1858 10.952C83.8338 10.568 83.6258 10.104 83.5618 9.56C83.4658 8.632 83.5778 7.768 83.8978 6.968C84.2178 6.168 84.6658 5.48 85.2418 4.904C85.8178 4.296 86.4898 3.816 87.2578 3.464C88.0578 3.112 88.8898 2.936 89.7538 2.936ZM87.2578 14.504H87.3058V35.24C87.3058 36.456 87.3538 37.336 87.4498 37.88C87.5778 38.424 87.6738 38.808 87.7378 39.032C87.9938 39.544 88.2818 39.96 88.6018 40.28H83.1777C83.8178 39.64 84.1858 38.856 84.2818 37.928C84.4098 36.968 84.4738 36.072 84.4738 35.24V24.776C84.4738 23.24 84.4418 21.992 84.3778 21.032C84.3458 20.04 84.2978 19.32 84.2338 18.872C83.9778 17.944 83.6258 17.304 83.1777 16.952C83.0178 16.728 82.7458 16.568 82.3618 16.472L87.2578 14.504ZM100.187 51.32C100.187 50.68 100.379 50.232 100.763 49.976C101.147 49.752 101.627 49.64 102.203 49.64C102.907 49.64 103.611 49.816 104.315 50.168C105.019 50.52 105.691 50.696 106.331 50.696C106.779 50.696 107.227 50.584 107.675 50.36C108.123 50.168 108.523 49.912 108.875 49.592C109.259 49.304 109.595 48.952 109.883 48.536C110.171 48.152 110.379 47.768 110.507 47.384L113.339 40.28L103.499 19.592C103.371 19.304 103.195 18.968 102.971 18.584C102.747 18.2 102.491 17.816 102.203 17.432C101.947 17.048 101.675 16.68 101.387 16.328C101.099 15.976 100.827 15.704 100.571 15.512H106.955C106.539 15.896 106.283 16.328 106.187 16.808C106.091 17.288 106.075 17.784 106.139 18.296C106.203 18.808 106.331 19.32 106.523 19.832C106.747 20.312 106.955 20.76 107.147 21.176L114.731 36.872L122.219 18.056C122.379 17.736 122.411 17.32 122.315 16.808C122.219 16.264 122.075 15.864 121.883 15.608C121.819 15.544 121.787 15.512 121.787 15.512H124.619C123.979 16.056 123.515 16.632 123.227 17.24C122.971 17.816 122.699 18.472 122.411 19.208L110.891 47.528C110.603 48.264 110.203 49 109.691 49.736C109.179 50.472 108.587 51.128 107.915 51.704C107.275 52.28 106.539 52.744 105.707 53.096C104.907 53.448 104.043 53.624 103.115 53.624C102.795 53.624 102.459 53.576 102.107 53.48C101.787 53.384 101.483 53.24 101.195 53.048C100.907 52.856 100.667 52.616 100.475 52.328C100.283 52.04 100.187 51.704 100.187 51.32Z" fill="#F1D8C0"/>
</svg>
