<svg width="154" height="42" viewBox="0 0 154 42" fill="none" xmlns="http://www.w3.org/2000/svg">
<path d="M0.376 40.856C0.792 40.664 1.208 40.296 1.624 39.752C2.04 39.176 2.44 38.552 2.824 37.88C3.208 37.208 3.544 36.552 3.832 35.912C4.152 35.24 4.392 34.712 4.552 34.328L18.184 2.408L31.672 34.664C32.28 36.104 32.856 37.288 33.4 38.216C33.944 39.112 34.488 39.8 35.032 40.28C35.16 40.376 35.288 40.488 35.416 40.616C35.544 40.712 35.688 40.792 35.848 40.856H27.592C28.04 40.536 28.36 40.168 28.552 39.752C28.744 39.304 28.84 38.84 28.84 38.36C28.84 37.88 28.744 37.272 28.552 36.536C28.36 35.768 28.04 34.872 27.592 33.848L24.952 27.656H7.912L4.984 34.376C4.632 35.272 4.36 36.04 4.168 36.68C4.008 37.32 3.928 37.864 3.928 38.312C3.928 38.632 3.992 39.016 4.12 39.464C4.28 39.88 4.632 40.312 5.176 40.76C5.176 40.76 5.24 40.792 5.368 40.856H0.376ZM8.056 27.272H24.904L16.6 7.448L8.056 27.272ZM35.9868 16.616L40.8828 14.648H40.9308V35.384C40.9308 36.6 40.9788 37.48 41.0748 38.024C41.2028 38.568 41.2988 38.952 41.3628 39.176C41.6188 39.656 41.9388 40.072 42.3228 40.424H36.8027C37.4428 39.784 37.8108 39 37.9068 38.072C38.0348 37.112 38.0988 36.216 38.0988 35.384V24.92C38.0988 23.384 38.0828 22.136 38.0508 21.176C38.0188 20.184 37.9548 19.448 37.8588 18.968C37.6988 18.424 37.4908 17.944 37.2348 17.528C36.9788 17.08 36.5628 16.776 35.9868 16.616ZM37.1868 9.704C37.1868 9.128 37.3788 8.664 37.7628 8.312C38.1468 7.928 38.6108 7.736 39.1548 7.736C39.6988 7.736 40.1628 7.928 40.5468 8.312C40.9308 8.696 41.1228 9.16 41.1228 9.704C41.1228 10.248 40.9308 10.712 40.5468 11.096C40.1628 11.448 39.6988 11.624 39.1548 11.624C38.6108 11.624 38.1468 11.448 37.7628 11.096C37.3788 10.712 37.1868 10.248 37.1868 9.704ZM49.8059 14.36C50.5419 14.168 51.2139 14.072 51.8219 14.072C52.5259 14.072 53.1659 14.168 53.7419 14.36C54.3499 14.52 54.9419 14.712 55.5179 14.936C56.0939 15.16 56.6699 15.368 57.2459 15.56C57.8539 15.752 58.4939 15.848 59.1659 15.848C59.9979 15.848 60.8619 15.688 61.7579 15.368C63.2939 14.792 64.4779 13.816 65.3099 12.44C66.1419 11.064 66.4779 9.56 66.3179 7.928C66.2219 7 65.9659 6.152 65.5499 5.384C65.1659 4.584 64.6539 3.896 64.0139 3.32C63.3739 2.744 62.6379 2.296 61.8059 1.976C60.9739 1.624 60.0939 1.448 59.1659 1.448C57.4379 1.448 55.9179 2.008 54.6059 3.128C53.2939 4.216 52.4619 5.592 52.1099 7.256C52.0459 7.672 52.1419 8.024 52.3979 8.312C52.6539 8.6 52.9899 8.744 53.4059 8.744H53.4539C53.9339 8.744 54.3339 8.92 54.6539 9.272C54.9739 9.592 55.1179 9.992 55.0859 10.472C55.0539 10.856 54.8939 11.192 54.6059 11.48C54.3499 11.768 54.0139 11.928 53.5979 11.96C53.0539 11.992 52.6379 11.848 52.3499 11.528C52.0619 11.176 51.8539 10.76 51.7259 10.28C51.5979 9.768 51.5499 9.24 51.5819 8.696C51.6139 8.152 51.6619 7.688 51.7259 7.304C51.8859 6.408 52.1899 5.592 52.6379 4.856C53.0859 4.088 53.6459 3.432 54.3179 2.888C54.9899 2.312 55.7419 1.864 56.5739 1.544C57.4059 1.224 58.2699 1.064 59.1659 1.064C60.1579 1.064 61.0859 1.24 61.9499 1.592C62.8139 1.944 63.5819 2.44 64.2539 3.08C64.9259 3.688 65.4699 4.408 65.8859 5.24C66.3339 6.04 66.6059 6.92 66.7019 7.88C66.7659 8.392 66.7979 9 66.7979 9.704C66.7979 10.376 66.7819 11.048 66.7499 11.72C66.7499 12.392 66.7339 13.032 66.7019 13.64C66.6699 14.216 66.6539 14.648 66.6539 14.936H69.2459C69.3419 14.936 69.3899 15.016 69.3899 15.176C69.3899 15.272 69.3419 15.32 69.2459 15.32H66.6539V33.992C66.6539 36.008 67.0059 37.416 67.7099 38.216C68.0619 38.632 68.4619 38.968 68.9099 39.224C69.3899 39.448 69.9019 39.56 70.4459 39.56C70.9259 39.56 71.3419 39.48 71.6939 39.32C71.6299 39.384 71.5659 39.448 71.5019 39.512C71.4699 39.544 71.4219 39.576 71.3579 39.608C70.3019 40.44 69.2139 40.856 68.0939 40.856C67.3579 40.856 66.6379 40.648 65.9339 40.232C65.4539 39.944 65.0699 39.592 64.7819 39.176C64.5259 38.76 64.3339 38.296 64.2059 37.784C64.0779 37.272 63.9979 36.76 63.9659 36.248C63.9339 35.704 63.9179 35.176 63.9179 34.664V15.368C63.0539 15.368 62.2699 15.512 61.5659 15.8C60.8619 16.088 60.0619 16.232 59.1659 16.232C58.4619 16.232 57.7899 16.136 57.1499 15.944C56.5419 15.752 55.9339 15.544 55.3259 15.32C54.7499 15.096 54.1579 14.888 53.5499 14.696C52.9739 14.504 52.3339 14.408 51.6299 14.408C51.1819 14.408 50.6059 14.488 49.9019 14.648C48.9739 14.936 48.2059 15.352 47.5979 15.896C46.9899 16.44 46.5579 17.064 46.3019 17.768C46.0459 18.472 45.9819 19.224 46.1099 20.024C46.2699 20.824 46.6379 21.592 47.2139 22.328C47.8859 23.224 49.2459 24.168 51.2939 25.16L55.6619 27.272C59.2459 29.032 61.0379 31.288 61.0379 34.04C61.0379 35.064 60.7979 36.04 60.3179 36.968C59.8699 37.896 59.2619 38.712 58.4939 39.416C57.7579 40.12 56.9099 40.68 55.9499 41.096C54.9899 41.512 54.0139 41.72 53.0219 41.72C52.3179 41.72 51.6299 41.624 50.9579 41.432C50.2859 41.272 49.6459 41.096 49.0379 40.904C48.4299 40.712 47.8539 40.536 47.3099 40.376C46.7979 40.184 46.3019 40.088 45.8219 40.088C45.4059 40.088 45.0539 40.168 44.7659 40.328V35.912C45.5019 37.48 46.6059 38.792 48.0779 39.848C49.5499 40.872 51.1499 41.384 52.8779 41.384C53.5499 41.384 54.2219 41.288 54.8939 41.096C55.9499 40.776 56.7979 40.28 57.4379 39.608C58.1099 38.904 58.5419 38.136 58.7339 37.304C58.9259 36.472 58.8779 35.608 58.5899 34.712C58.3339 33.816 57.8219 33.016 57.0539 32.312C56.0619 31.32 54.0619 30.072 51.0539 28.568C49.3579 27.736 48.1099 27.032 47.3099 26.456C46.5419 25.848 46.0299 25.368 45.7739 25.016C45.0699 24.12 44.6859 23.112 44.6219 21.992C44.5899 20.872 44.7819 19.8 45.1979 18.776C45.6139 17.72 46.2219 16.792 47.0219 15.992C47.8539 15.192 48.7819 14.648 49.8059 14.36ZM71.8026 15.416H75.8826L75.9306 31.544C75.9306 32.344 75.9786 33.224 76.0746 34.184C76.2026 35.144 76.4266 36.04 76.7466 36.872C77.0986 37.672 77.5946 38.36 78.2346 38.936C78.8746 39.48 79.7226 39.752 80.7786 39.752C82.0586 39.752 83.3226 39.32 84.5706 38.456C85.8186 37.592 86.8106 36.52 87.5466 35.24C87.9626 34.504 88.2986 33.736 88.5546 32.936C88.8426 32.136 89.0666 31.368 89.2266 30.632V20.456C89.2266 19.112 89.1786 18.2 89.0826 17.72C88.9866 17.208 88.8906 16.84 88.7946 16.616C88.5386 16.072 88.2506 15.672 87.9306 15.416H92.0106V30.536C92.0106 31.08 91.9946 31.8 91.9626 32.696C91.9626 33.592 92.0106 34.488 92.1066 35.384C92.2346 36.248 92.4426 37.048 92.7306 37.784C93.0506 38.488 93.5306 38.952 94.1706 39.176L89.2746 41.192H89.2266V32.168C89.0666 32.712 88.8746 33.256 88.6506 33.8C88.4266 34.344 88.1546 34.888 87.8346 35.432C87.3866 36.232 86.8266 36.984 86.1546 37.688C85.5146 38.36 84.7946 38.968 83.9946 39.512C83.1946 40.024 82.3626 40.44 81.4986 40.76C80.6666 41.048 79.8346 41.192 79.0026 41.192C77.7226 41.192 76.6986 40.904 75.9306 40.328C75.1626 39.72 74.5706 38.968 74.1546 38.072C73.7386 37.176 73.4506 36.2 73.2906 35.144C73.1626 34.056 73.0986 33.016 73.0986 32.024V20.456C73.0986 18.568 72.9386 17.256 72.6186 16.52C72.5546 16.296 72.4426 16.104 72.2826 15.944C72.1226 15.752 71.9626 15.576 71.8026 15.416ZM95.6665 29.048C95.6665 25.336 96.8345 22.008 99.1705 19.064C100.003 17.88 101.075 16.856 102.387 15.992C103.699 15.128 105.091 14.616 106.562 14.456C107.523 14.36 108.371 14.408 109.107 14.6C109.875 14.76 110.563 15.016 111.171 15.368C111.811 15.72 112.403 16.152 112.947 16.664C113.523 17.176 114.115 17.736 114.723 18.344V10.808C114.723 9.752 114.707 8.872 114.675 8.168C114.675 7.464 114.659 6.888 114.627 6.44C114.595 5.992 114.563 5.656 114.531 5.432C114.499 5.208 114.467 5.032 114.435 4.904C114.371 4.392 114.243 3.976 114.051 3.656C113.891 3.336 113.683 3.064 113.427 2.84C113.107 2.616 112.851 2.472 112.659 2.408L117.363 0.439999H117.507V30.728C117.507 31.816 117.507 32.728 117.507 33.464C117.539 34.168 117.555 34.76 117.555 35.24C117.587 35.688 117.603 36.024 117.603 36.248C117.635 36.472 117.667 36.648 117.699 36.776C117.955 37.736 118.323 38.408 118.802 38.792C118.963 38.984 119.219 39.144 119.571 39.272L114.819 41.24H114.723V35.432C114.019 37.384 112.883 38.84 111.315 39.8C109.747 40.728 108.051 41.192 106.227 41.192C104.531 41.192 103.027 40.856 101.715 40.184C100.403 39.512 99.2985 38.616 98.4025 37.496C97.5065 36.376 96.8185 35.08 96.3385 33.608C95.8905 32.136 95.6665 30.616 95.6665 29.048ZM101.811 36.584C102.739 37.704 103.747 38.52 104.835 39.032C105.923 39.544 106.995 39.8 108.051 39.8C108.883 39.8 109.667 39.656 110.403 39.368C111.171 39.08 111.859 38.68 112.467 38.168C113.075 37.624 113.571 36.984 113.955 36.248C114.371 35.48 114.627 34.648 114.723 33.752V22.328C114.627 21.592 114.483 20.888 114.291 20.216C114.131 19.544 113.875 18.888 113.523 18.248C112.851 16.936 111.891 16.024 110.643 15.512C109.395 14.968 108.051 14.744 106.611 14.84C105.139 14.968 103.907 15.432 102.915 16.232C101.955 17 101.171 17.96 100.562 19.112C99.9865 20.232 99.5705 21.464 99.3145 22.808C99.0905 24.152 98.9785 25.448 98.9785 26.696C98.9785 28.808 99.2185 30.696 99.6985 32.36C100.179 33.992 100.883 35.4 101.811 36.584ZM121.112 16.616L126.008 14.648H126.056V35.384C126.056 36.6 126.104 37.48 126.2 38.024C126.328 38.568 126.424 38.952 126.488 39.176C126.744 39.656 127.064 40.072 127.448 40.424H121.928C122.568 39.784 122.936 39 123.032 38.072C123.16 37.112 123.224 36.216 123.224 35.384V24.92C123.224 23.384 123.208 22.136 123.176 21.176C123.144 20.184 123.08 19.448 122.984 18.968C122.824 18.424 122.616 17.944 122.36 17.528C122.104 17.08 121.688 16.776 121.112 16.616ZM122.312 9.704C122.312 9.128 122.504 8.664 122.888 8.312C123.272 7.928 123.736 7.736 124.28 7.736C124.824 7.736 125.288 7.928 125.672 8.312C126.056 8.696 126.248 9.16 126.248 9.704C126.248 10.248 126.056 10.712 125.672 11.096C125.288 11.448 124.824 11.624 124.28 11.624C123.736 11.624 123.272 11.448 122.888 11.096C122.504 10.712 122.312 10.248 122.312 9.704ZM129.603 28.184C129.603 26.456 129.891 24.776 130.467 23.144C131.075 21.48 131.907 20.008 132.963 18.728C134.051 17.448 135.347 16.424 136.851 15.656C138.355 14.856 140.019 14.456 141.843 14.456C143.539 14.456 145.107 14.824 146.547 15.56C147.987 16.264 149.235 17.224 150.291 18.44C151.347 19.624 152.163 21 152.739 22.568C153.347 24.104 153.651 25.72 153.651 27.416C153.651 29.176 153.363 30.904 152.787 32.6C152.211 34.264 151.379 35.752 150.291 37.064C149.235 38.376 147.939 39.432 146.403 40.232C144.899 41 143.219 41.384 141.363 41.384C139.667 41.384 138.099 41.032 136.659 40.328C135.219 39.592 133.971 38.616 132.915 37.4C131.891 36.152 131.075 34.744 130.467 33.176C129.891 31.576 129.603 29.912 129.603 28.184ZM141.987 40.904C142.691 40.904 143.523 40.776 144.483 40.52C145.827 40.168 146.883 39.64 147.651 38.936C148.419 38.232 148.995 37.416 149.379 36.488C149.763 35.528 150.003 34.472 150.099 33.32C150.195 32.168 150.243 30.968 150.243 29.72C150.243 28.248 150.099 26.648 149.811 24.92C149.555 23.192 149.091 21.592 148.419 20.12C147.747 18.616 146.851 17.368 145.731 16.376C144.611 15.384 143.187 14.888 141.459 14.888C141.203 14.888 140.915 14.904 140.595 14.936C140.307 14.968 140.003 15.016 139.683 15.08C138.243 15.368 137.075 15.848 136.179 16.52C135.315 17.16 134.643 17.96 134.163 18.92C133.683 19.848 133.363 20.888 133.203 22.04C133.043 23.192 132.963 24.408 132.963 25.688C132.963 27.16 133.107 28.776 133.395 30.536C133.715 32.296 134.227 33.944 134.931 35.48C135.635 37.016 136.563 38.312 137.715 39.368C138.867 40.392 140.291 40.904 141.987 40.904Z" fill="#F1D8C0"/>
</svg>
