<svg width="24" height="24" viewBox="0 0 24 24" fill="none" xmlns="http://www.w3.org/2000/svg">
<g clip-path="url(#clip0_3_7)">
<path d="M17.7743 13.4971C16.8734 14.399 15.4662 15.8077 14.2879 16.9942C12.8874 16.0774 11.6214 15.0657 10.6033 14.0477C9.34611 12.7905 7.77396 11.0004 6.92436 9.73242C8.00303 8.66144 9.41367 7.25262 10.4488 6.21844L4.23032 0L1.1276 3.04688L1.12302 3.05145C0.254738 3.91974 -0.112938 5.10498 0.0302507 6.57422C0.488198 11.2723 6.23331 18.0775 11.3119 21.4858C14.2522 23.4591 18.4785 25.2858 20.9783 22.7858C22.7932 20.9711 23.487 20.2317 23.5157 20.2011L23.9812 19.7042L17.7743 13.4971Z" fill="#F1D8C0"/>
</g>
<defs>
<clipPath id="clip0_3_7">
<rect width="24" height="24" fill="white"/>
</clipPath>
</defs>
</svg>
